<svg xmlns="http://www.w3.org/2000/svg" xmlns:xlink="http://www.w3.org/1999/xlink" version="1.1" class="marks" width="418" height="317" viewBox="0 0 418 317"><rect width="418" height="317" fill="white"/><g fill="none" stroke-miterlimit="10" transform="translate(11,6)"><g class="mark-group role-frame root" role="graphics-object" aria-roledescription="group mark container"><g transform="translate(0,0)"><path class="background" aria-hidden="true" d="M0.5,0.5h400v300h-400Z" stroke="#ddd"/><g><g class="mark-group role-axis" aria-hidden="true"><g transform="translate(0.5,300.5)"><path class="background" aria-hidden="true" d="M0,0h0v0h0Z" pointer-events="none"/><g><g class="mark-rule role-axis-grid" pointer-events="none"><line transform="translate(0,-300)" x2="0" y2="300" stroke="#ddd" stroke-width="1" opacity="1"/><line transform="translate(40,-300)" x2="0" y2="300" stroke="#ddd" stroke-width="1" opacity="1"/><line transform="translate(80,-300)" x2="0" y2="300" stroke="#ddd" stroke-width="1" opacity="1"/><line transform="translate(120,-300)" x2="0" y2="300" stroke="#ddd" stroke-width="1" opacity="1"/><line transform="translate(160,-300)" x2="0" y2="300" stroke="#ddd" stroke-width="1" opacity="1"/><line transform="translate(200,-300)" x2="0" y2="300" stroke="#ddd" stroke-width="1" opacity="1"/><line transform="translate(240,-300)" x2="0" y2="300" stroke="#ddd" stroke-width="1" opacity="1"/><line transform="translate(280,-300)" x2="0" y2="300" stroke="#ddd" stroke-width="1" opacity="1"/><line transform="translate(320,-300)" x2="0" y2="300" stroke="#ddd" stroke-width="1" opacity="1"/><line transform="translate(360,-300)" x2="0" y2="300" stroke="#ddd" stroke-width="1" opacity="1"/><line transform="translate(400,-300)" x2="0" y2="300" stroke="#ddd" stroke-width="1" opacity="1"/></g></g><path class="foreground" aria-hidden="true" d="" pointer-events="none" display="none"/></g></g><g class="mark-group role-axis" aria-hidden="true"><g transform="translate(0.5,0.5)"><path class="background" aria-hidden="true" d="M0,0h0v0h0Z" pointer-events="none"/><g><g class="mark-rule role-axis-grid" pointer-events="none"><line transform="translate(0,300)" x2="400" y2="0" stroke="#ddd" stroke-width="1" opacity="1"/><line transform="translate(0,257)" x2="400" y2="0" stroke="#ddd" stroke-width="1" opacity="1"/><line transform="translate(0,214)" x2="400" y2="0" stroke="#ddd" stroke-width="1" opacity="1"/><line transform="translate(0,171)" x2="400" y2="0" stroke="#ddd" stroke-width="1" opacity="1"/><line transform="translate(0,129)" x2="400" y2="0" stroke="#ddd" stroke-width="1" opacity="1"/><line transform="translate(0,86)" x2="400" y2="0" stroke="#ddd" stroke-width="1" opacity="1"/><line transform="translate(0,43)" x2="400" y2="0" stroke="#ddd" stroke-width="1" opacity="1"/><line transform="translate(0,0)" x2="400" y2="0" stroke="#ddd" stroke-width="1" opacity="1"/></g></g><path class="foreground" aria-hidden="true" d="" pointer-events="none" display="none"/></g></g><g class="mark-group role-axis" role="graphics-symbol" aria-roledescription="axis" aria-label="X-axis for a linear scale with values from 0 to 5"><g transform="translate(0.5,300.5)"><path class="background" aria-hidden="true" d="M0,0h0v0h0Z" pointer-events="none"/><g><g class="mark-rule role-axis-tick" pointer-events="none"><line transform="translate(0,0)" x2="0" y2="5" stroke="#888" stroke-width="1" opacity="1"/><line transform="translate(40,0)" x2="0" y2="5" stroke="#888" stroke-width="1" opacity="1"/><line transform="translate(80,0)" x2="0" y2="5" stroke="#888" stroke-width="1" opacity="1"/><line transform="translate(120,0)" x2="0" y2="5" stroke="#888" stroke-width="1" opacity="1"/><line transform="translate(160,0)" x2="0" y2="5" stroke="#888" stroke-width="1" opacity="1"/><line transform="translate(200,0)" x2="0" y2="5" stroke="#888" stroke-width="1" opacity="1"/><line transform="translate(240,0)" x2="0" y2="5" stroke="#888" stroke-width="1" opacity="1"/><line transform="translate(280,0)" x2="0" y2="5" stroke="#888" stroke-width="1" opacity="1"/><line transform="translate(320,0)" x2="0" y2="5" stroke="#888" stroke-width="1" opacity="1"/><line transform="translate(360,0)" x2="0" y2="5" stroke="#888" stroke-width="1" opacity="1"/><line transform="translate(400,0)" x2="0" y2="5" stroke="#888" stroke-width="1" opacity="1"/></g><g class="mark-rule role-axis-domain" pointer-events="none"><line transform="translate(0,0)" x2="400" y2="0" stroke="#888" stroke-width="1" opacity="1"/></g></g><path class="foreground" aria-hidden="true" d="" pointer-events="none" display="none"/></g></g><g class="mark-group role-axis" role="graphics-symbol" aria-roledescription="axis" aria-label="Y-axis for a linear scale with values from 0.0 to 0.7"><g transform="translate(0.5,0.5)"><path class="background" aria-hidden="true" d="M0,0h0v0h0Z" pointer-events="none"/><g><g class="mark-rule role-axis-tick" pointer-events="none"><line transform="translate(0,300)" x2="-5" y2="0" stroke="#888" stroke-width="1" opacity="1"/><line transform="translate(0,257)" x2="-5" y2="0" stroke="#888" stroke-width="1" opacity="1"/><line transform="translate(0,214)" x2="-5" y2="0" stroke="#888" stroke-width="1" opacity="1"/><line transform="translate(0,171)" x2="-5" y2="0" stroke="#888" stroke-width="1" opacity="1"/><line transform="translate(0,129)" x2="-5" y2="0" stroke="#888" stroke-width="1" opacity="1"/><line transform="translate(0,86)" x2="-5" y2="0" stroke="#888" stroke-width="1" opacity="1"/><line transform="translate(0,43)" x2="-5" y2="0" stroke="#888" stroke-width="1" opacity="1"/><line transform="translate(0,0)" x2="-5" y2="0" stroke="#888" stroke-width="1" opacity="1"/></g><g class="mark-rule role-axis-domain" pointer-events="none"><line transform="translate(0,300)" x2="0" y2="-300" stroke="#888" stroke-width="1" opacity="1"/></g></g><path class="foreground" aria-hidden="true" d="" pointer-events="none" display="none"/></g></g><g class="mark-line role-mark marks" role="graphics-object" aria-roledescription="line mark container"><path aria-label="x: 0; pdf: 0" role="graphics-symbol" aria-roledescription="line mark" d="M0,300L2.01,292.31L4.02,261.137L6.03,219.762L8.04,178.529L10.05,141.727L12.06,110.651L14.07,85.303L16.08,65.172L18.09,49.588L20.101,37.873L22.111,29.403L24.121,23.634L26.131,20.096L28.141,18.392L30.151,18.192L32.161,19.217L34.171,21.236L36.181,24.056L38.191,27.519L40.201,31.49L42.211,35.859L44.221,40.535L46.231,45.44L48.241,50.513L50.251,55.699L52.261,60.956L54.271,66.247L56.281,71.543L58.291,76.819L60.302,82.056L62.312,87.237L64.322,92.349L66.332,97.381L68.342,102.326L70.352,107.176L72.362,111.927L74.372,116.575L76.382,121.118L78.392,125.554L80.402,129.882L82.412,134.102L84.422,138.215L86.432,142.221L88.442,146.121L90.452,149.918L92.462,153.611L94.472,157.204L96.482,160.699L98.492,164.097L100.503,167.4L102.513,170.612L104.523,173.733L106.533,176.767L108.543,179.716L110.553,182.582L112.563,185.368L114.573,188.075L116.583,190.706L118.593,193.264L120.603,195.75L122.613,198.166L124.623,200.515L126.633,202.798L128.643,205.018L130.653,207.177L132.663,209.276L134.673,211.317L136.683,213.303L138.693,215.234L140.704,217.112L142.714,218.94L144.724,220.718L146.734,222.448L148.744,224.132L150.754,225.771L152.764,227.366L154.774,228.919L156.784,230.431L158.794,231.903L160.804,233.337L162.814,234.734L164.824,236.094L166.834,237.42L168.844,238.711L170.854,239.969L172.864,241.195L174.874,242.391L176.884,243.556L178.894,244.692L180.905,245.799L182.915,246.879L184.925,247.933L186.935,248.96L188.945,249.962L190.955,250.94L192.965,251.894L194.975,252.825L196.985,253.733L198.995,254.62L201.005,255.485L203.015,256.331L205.025,257.156L207.035,257.961L209.045,258.748L211.055,259.517L213.065,260.268L215.075,261.001L217.085,261.718L219.095,262.418L221.106,263.102L223.116,263.771L225.126,264.425L227.136,265.064L229.146,265.688L231.156,266.299L233.166,266.896L235.176,267.481L237.186,268.052L239.196,268.611L241.206,269.157L243.216,269.692L245.226,270.215L247.236,270.727L249.246,271.229L251.256,271.719L253.266,272.199L255.276,272.669L257.286,273.129L259.296,273.579L261.307,274.02L263.317,274.452L265.327,274.875L267.337,275.289L269.347,275.695L271.357,276.092L273.367,276.482L275.377,276.863L277.387,277.237L279.397,277.604L281.407,277.963L283.417,278.314L285.427,278.659L287.437,278.997L289.447,279.329L291.457,279.654L293.467,279.972L295.477,280.285L297.487,280.591L299.497,280.891L301.508,281.186L303.518,281.475L305.528,281.759L307.538,282.037L309.548,282.31L311.558,282.578L313.568,282.84L315.578,283.098L317.588,283.351L319.598,283.599L321.608,283.843L323.618,284.082L325.628,284.317L327.638,284.548L329.648,284.774L331.658,284.996L333.668,285.215L335.678,285.429L337.688,285.639L339.698,285.846L341.709,286.049L343.719,286.249L345.729,286.445L347.739,286.637L349.749,286.826L351.759,287.012L353.769,287.194L355.779,287.374L357.789,287.55L359.799,287.723L361.809,287.893L363.819,288.061L365.829,288.225L367.839,288.387L369.849,288.546L371.859,288.702L373.869,288.856L375.879,289.007L377.889,289.155L379.899,289.301L381.91,289.445L383.92,289.586L385.93,289.725L387.94,289.861L389.95,289.996L391.96,290.128L393.97,290.258L395.98,290.386L397.99,290.512L400,290.635" stroke="#4c78a8" stroke-width="2"/></g></g><path class="foreground" aria-hidden="true" d="" display="none"/></g></g></g></svg>