<svg xmlns="http://www.w3.org/2000/svg" xmlns:xlink="http://www.w3.org/1999/xlink" version="1.1" class="marks" width="816" height="449" viewBox="0 0 816 449"><rect width="816" height="449" fill="white"/><g fill="none" stroke-miterlimit="10" transform="translate(11,23)"><g class="mark-group role-frame root" role="graphics-object" aria-roledescription="group mark container"><g transform="translate(0,0)"><path class="background" aria-hidden="true" d="M0.5,0.5h800v400h-800Z" stroke="#ddd"/><g><g class="mark-group role-axis" aria-hidden="true"><g transform="translate(0.5,0.5)"><path class="background" aria-hidden="true" d="M0,0h0v0h0Z" pointer-events="none"/><g><g class="mark-rule role-axis-grid" pointer-events="none"><line transform="translate(0,400)" x2="800" y2="0" stroke="#ddd" stroke-width="1" opacity="1"/><line transform="translate(0,371)" x2="800" y2="0" stroke="#ddd" stroke-width="1" opacity="1"/><line transform="translate(0,343)" x2="800" y2="0" stroke="#ddd" stroke-width="1" opacity="1"/><line transform="translate(0,314)" x2="800" y2="0" stroke="#ddd" stroke-width="1" opacity="1"/><line transform="translate(0,286)" x2="800" y2="0" stroke="#ddd" stroke-width="1" opacity="1"/><line transform="translate(0,257)" x2="800" y2="0" stroke="#ddd" stroke-width="1" opacity="1"/><line transform="translate(0,229)" x2="800" y2="0" stroke="#ddd" stroke-width="1" opacity="1"/><line transform="translate(0,200)" x2="800" y2="0" stroke="#ddd" stroke-width="1" opacity="1"/><line transform="translate(0,171)" x2="800" y2="0" stroke="#ddd" stroke-width="1" opacity="1"/><line transform="translate(0,143)" x2="800" y2="0" stroke="#ddd" stroke-width="1" opacity="1"/><line transform="translate(0,114)" x2="800" y2="0" stroke="#ddd" stroke-width="1" opacity="1"/><line transform="translate(0,86)" x2="800" y2="0" stroke="#ddd" stroke-width="1" opacity="1"/><line transform="translate(0,57)" x2="800" y2="0" stroke="#ddd" stroke-width="1" opacity="1"/><line transform="translate(0,29)" x2="800" y2="0" stroke="#ddd" stroke-width="1" opacity="1"/><line transform="translate(0,0)" x2="800" y2="0" stroke="#ddd" stroke-width="1" opacity="1"/></g></g><path class="foreground" aria-hidden="true" d="" pointer-events="none" display="none"/></g></g><g class="mark-group role-axis" role="graphics-symbol" aria-roledescription="axis" aria-label="X-axis titled 'Shard' for a discrete scale with 20 values: 7063b950-c7cb-488d-a8df-c1b73382ee96, 6b6956ec-6b2d-4bf9-b6d3-af01a6a2a93c, 291ac8cd-bed6-49de-828d-8f2882df973a, e8c5a999-af0a-45d3-b56d-90d2d0d31c81, 55cebf6a-c591-492a-903c-947acf4d6b53, ending with 0b9f7557-a867-4def-9815-0116d76364e2"><g transform="translate(0.5,400.5)"><path class="background" aria-hidden="true" d="M0,0h0v0h0Z" pointer-events="none"/><g><g class="mark-rule role-axis-tick" pointer-events="none"><line transform="translate(20,0)" x2="0" y2="5" stroke="#888" stroke-width="1" opacity="1"/><line transform="translate(60,0)" x2="0" y2="5" stroke="#888" stroke-width="1" opacity="1"/><line transform="translate(100,0)" x2="0" y2="5" stroke="#888" stroke-width="1" opacity="1"/><line transform="translate(140,0)" x2="0" y2="5" stroke="#888" stroke-width="1" opacity="1"/><line transform="translate(180,0)" x2="0" y2="5" stroke="#888" stroke-width="1" opacity="1"/><line transform="translate(220,0)" x2="0" y2="5" stroke="#888" stroke-width="1" opacity="1"/><line transform="translate(260,0)" x2="0" y2="5" stroke="#888" stroke-width="1" opacity="1"/><line transform="translate(300,0)" x2="0" y2="5" stroke="#888" stroke-width="1" opacity="1"/><line transform="translate(340,0)" x2="0" y2="5" stroke="#888" stroke-width="1" opacity="1"/><line transform="translate(380,0)" x2="0" y2="5" stroke="#888" stroke-width="1" opacity="1"/><line transform="translate(420,0)" x2="0" y2="5" stroke="#888" stroke-width="1" opacity="1"/><line transform="translate(460,0)" x2="0" y2="5" stroke="#888" stroke-width="1" opacity="1"/><line transform="translate(500,0)" x2="0" y2="5" stroke="#888" stroke-width="1" opacity="1"/><line transform="translate(540,0)" x2="0" y2="5" stroke="#888" stroke-width="1" opacity="1"/><line transform="translate(580,0)" x2="0" y2="5" stroke="#888" stroke-width="1" opacity="1"/><line transform="translate(620,0)" x2="0" y2="5" stroke="#888" stroke-width="1" opacity="1"/><line transform="translate(660,0)" x2="0" y2="5" stroke="#888" stroke-width="1" opacity="1"/><line transform="translate(700,0)" x2="0" y2="5" stroke="#888" stroke-width="1" opacity="1"/><line transform="translate(740,0)" x2="0" y2="5" stroke="#888" stroke-width="1" opacity="1"/><line transform="translate(780,0)" x2="0" y2="5" stroke="#888" stroke-width="1" opacity="1"/></g><g class="mark-rule role-axis-domain" pointer-events="none"><line transform="translate(0,0)" x2="800" y2="0" stroke="#888" stroke-width="1" opacity="1"/></g><g class="mark-text role-axis-title" pointer-events="none"><text text-anchor="middle" transform="translate(400,19)" font-family="sans-serif" font-size="11px" font-weight="bold" fill="#000" opacity="1">Shard</text></g></g><path class="foreground" aria-hidden="true" d="" pointer-events="none" display="none"/></g></g><g class="mark-group role-axis" role="graphics-symbol" aria-roledescription="axis" aria-label="Y-axis for a linear scale with values from 0 to 280"><g transform="translate(0.5,0.5)"><path class="background" aria-hidden="true" d="M0,0h0v0h0Z" pointer-events="none"/><g><g class="mark-rule role-axis-tick" pointer-events="none"><line transform="translate(0,400)" x2="-5" y2="0" stroke="#888" stroke-width="1" opacity="1"/><line transform="translate(0,371)" x2="-5" y2="0" stroke="#888" stroke-width="1" opacity="1"/><line transform="translate(0,343)" x2="-5" y2="0" stroke="#888" stroke-width="1" opacity="1"/><line transform="translate(0,314)" x2="-5" y2="0" stroke="#888" stroke-width="1" opacity="1"/><line transform="translate(0,286)" x2="-5" y2="0" stroke="#888" stroke-width="1" opacity="1"/><line transform="translate(0,257)" x2="-5" y2="0" stroke="#888" stroke-width="1" opacity="1"/><line transform="translate(0,229)" x2="-5" y2="0" stroke="#888" stroke-width="1" opacity="1"/><line transform="translate(0,200)" x2="-5" y2="0" stroke="#888" stroke-width="1" opacity="1"/><line transform="translate(0,171)" x2="-5" y2="0" stroke="#888" stroke-width="1" opacity="1"/><line transform="translate(0,143)" x2="-5" y2="0" stroke="#888" stroke-width="1" opacity="1"/><line transform="translate(0,114)" x2="-5" y2="0" stroke="#888" stroke-width="1" opacity="1"/><line transform="translate(0,86)" x2="-5" y2="0" stroke="#888" stroke-width="1" opacity="1"/><line transform="translate(0,57)" x2="-5" y2="0" stroke="#888" stroke-width="1" opacity="1"/><line transform="translate(0,29)" x2="-5" y2="0" stroke="#888" stroke-width="1" opacity="1"/><line transform="translate(0,0)" x2="-5" y2="0" stroke="#888" stroke-width="1" opacity="1"/></g><g class="mark-rule role-axis-domain" pointer-events="none"><line transform="translate(0,400)" x2="0" y2="-400" stroke="#888" stroke-width="1" opacity="1"/></g></g><path class="foreground" aria-hidden="true" d="" pointer-events="none" display="none"/></g></g><g class="mark-rect role-mark marks" role="graphics-object" aria-roledescription="rect mark container"><path aria-label="uuid: 7063b950-c7cb-488d-a8df-c1b73382ee96; rank_score: 275" role="graphics-symbol" aria-roledescription="bar" d="M2,7.142857142857162h36v392.85714285714283h-36Z" fill="#4c78a8"/><path aria-label="uuid: 6b6956ec-6b2d-4bf9-b6d3-af01a6a2a93c; rank_score: 50" role="graphics-symbol" aria-roledescription="bar" d="M42,328.57142857142856h36v71.42857142857144h-36Z" fill="#4c78a8"/><path aria-label="uuid: 291ac8cd-bed6-49de-828d-8f2882df973a; rank_score: 14" role="graphics-symbol" aria-roledescription="bar" d="M82,380h36v20h-36Z" fill="#4c78a8"/><path aria-label="uuid: e8c5a999-af0a-45d3-b56d-90d2d0d31c81; rank_score: 11" role="graphics-symbol" aria-roledescription="bar" d="M122,384.2857142857143h36v15.714285714285722h-36Z" fill="#4c78a8"/><path aria-label="uuid: 55cebf6a-c591-492a-903c-947acf4d6b53; rank_score: 8" role="graphics-symbol" aria-roledescription="bar" d="M162,388.57142857142856h36v11.428571428571445h-36Z" fill="#4c78a8"/><path aria-label="uuid: 93f1ff46-e9c6-4f27-8e9f-20ed148901cb; rank_score: 4" role="graphics-symbol" aria-roledescription="bar" d="M202,394.28571428571433h36v5.714285714285666h-36Z" fill="#4c78a8"/><path aria-label="uuid: 51b12290-eaa4-4d94-871b-31461499a26a; rank_score: 3" role="graphics-symbol" aria-roledescription="bar" d="M242,395.7142857142857h36v4.285714285714278h-36Z" fill="#4c78a8"/><path aria-label="uuid: 335eed39-057d-45d3-9fcf-3f88530662b5; rank_score: 2" role="graphics-symbol" aria-roledescription="bar" d="M282,397.14285714285717h36v2.857142857142833h-36Z" fill="#4c78a8"/><path aria-label="uuid: b3e251f3-500e-43f1-a7ad-d631d2632603; rank_score: 2" role="graphics-symbol" aria-roledescription="bar" d="M322,397.14285714285717h36v2.857142857142833h-36Z" fill="#4c78a8"/><path aria-label="uuid: b08661a2-ac2a-409e-8a02-32a6bcdd7082; rank_score: 2" role="graphics-symbol" aria-roledescription="bar" d="M362,397.14285714285717h36v2.857142857142833h-36Z" fill="#4c78a8"/><path aria-label="uuid: e347177e-d452-4ddd-b3f2-d2f38043db48; rank_score: 2" role="graphics-symbol" aria-roledescription="bar" d="M402,397.14285714285717h36v2.857142857142833h-36Z" fill="#4c78a8"/><path aria-label="uuid: c20c6c2a-39cb-483e-b15e-8ef1bed92e95; rank_score: 1" role="graphics-symbol" aria-roledescription="bar" d="M442,398.57142857142856h36v1.4285714285714448h-36Z" fill="#4c78a8"/><path aria-label="uuid: 3927e810-ee52-4049-a9f1-c76b56235b8d; rank_score: 1" role="graphics-symbol" aria-roledescription="bar" d="M482,398.57142857142856h36v1.4285714285714448h-36Z" fill="#4c78a8"/><path aria-label="uuid: 8f7c386f-b40f-4e4e-8a0a-a38831507708; rank_score: 1" role="graphics-symbol" aria-roledescription="bar" d="M522,398.57142857142856h36v1.4285714285714448h-36Z" fill="#4c78a8"/><path aria-label="uuid: 809b2af1-08ed-409d-a61d-8905a7cde902; rank_score: 1" role="graphics-symbol" aria-roledescription="bar" d="M562,398.57142857142856h36v1.4285714285714448h-36Z" fill="#4c78a8"/><path aria-label="uuid: f9fac9de-6b7a-41b6-b1f2-b7649a6c17b6; rank_score: 1" role="graphics-symbol" aria-roledescription="bar" d="M602,398.57142857142856h36v1.4285714285714448h-36Z" fill="#4c78a8"/><path aria-label="uuid: 76a60391-2c80-4048-9fd1-a2defe952400; rank_score: 1" role="graphics-symbol" aria-roledescription="bar" d="M642,398.57142857142856h36v1.4285714285714448h-36Z" fill="#4c78a8"/><path aria-label="uuid: 31e080b0-ce79-4553-bebe-c9559e1fa13b; rank_score: 1" role="graphics-symbol" aria-roledescription="bar" d="M682,398.57142857142856h36v1.4285714285714448h-36Z" fill="#4c78a8"/><path aria-label="uuid: 014ed27f-a5c9-4163-a987-676dae2b9233; rank_score: 1" role="graphics-symbol" aria-roledescription="bar" d="M722,398.57142857142856h36v1.4285714285714448h-36Z" fill="#4c78a8"/><path aria-label="uuid: 0b9f7557-a867-4def-9815-0116d76364e2; rank_score: 1" role="graphics-symbol" aria-roledescription="bar" d="M762,398.57142857142856h36v1.4285714285714448h-36Z" fill="#4c78a8"/></g><g class="mark-group role-title"><g transform="translate(400,-18)"><path class="background" aria-hidden="true" d="M0,0h0v0h0Z" pointer-events="none"/><g><g class="mark-text role-title-text" role="graphics-symbol" aria-roledescription="title" aria-label="Title text 'DB writes by shard'" pointer-events="none"><text text-anchor="middle" transform="translate(0,10)" font-family="sans-serif" font-size="13px" font-weight="bold" fill="#000" opacity="1">DB writes by shard</text></g></g><path class="foreground" aria-hidden="true" d="" pointer-events="none" display="none"/></g></g></g><path class="foreground" aria-hidden="true" d="" display="none"/></g></g></g></svg>